<svg id="visual" viewBox="0 0 900 600" width="900" height="600" xmlns="http://www.w3.org/2000/svg" xmlns:xlink="http://www.w3.org/1999/xlink" version="1.1"><rect x="0" y="0" width="900" height="600" fill="#FF0066"></rect><g transform="translate(488.6341488638098 237.34185643771485)"><path d="M182.2 -227.1C264.5 -191 379 -175.7 385.3 -131.2C391.5 -86.6 289.4 -12.9 243 63.2C196.5 139.3 205.8 217.7 174.6 293.5C143.4 369.4 71.7 442.7 3 438.5C-65.6 434.3 -131.3 352.7 -214.5 293.7C-297.7 234.8 -398.5 198.5 -440.2 129.1C-481.9 59.7 -464.4 -42.7 -400.8 -96.8C-337.2 -150.8 -227.4 -156.3 -152.9 -194.9C-78.4 -233.5 -39.2 -305.3 5.4 -312.7C50 -320.1 99.9 -263.2 182.2 -227.1" fill="#BB004B"></path></g></svg>