<svg id="visual" viewBox="0 0 900 600" width="900" height="600" xmlns="http://www.w3.org/2000/svg" xmlns:xlink="http://www.w3.org/1999/xlink" version="1.1"><path d="M0 145L13.7 144C27.3 143 54.7 141 82 135C109.3 129 136.7 119 163.8 113C191 107 218 105 245.2 102C272.3 99 299.7 95 327 96C354.3 97 381.7 103 409 107C436.3 111 463.7 113 491 116C518.3 119 545.7 123 573 125C600.3 127 627.7 127 654.8 133C682 139 709 151 736.2 142C763.3 133 790.7 103 818 85C845.3 67 872.7 61 886.3 58L900 55L900 0L886.3 0C872.7 0 845.3 0 818 0C790.7 0 763.3 0 736.2 0C709 0 682 0 654.8 0C627.7 0 600.3 0 573 0C545.7 0 518.3 0 491 0C463.7 0 436.3 0 409 0C381.7 0 354.3 0 327 0C299.7 0 272.3 0 245.2 0C218 0 191 0 163.8 0C136.7 0 109.3 0 82 0C54.7 0 27.3 0 13.7 0L0 0Z" fill="#6198ff"></path><path d="M0 181L13.7 183C27.3 185 54.7 189 82 182C109.3 175 136.7 157 163.8 155C191 153 218 167 245.2 164C272.3 161 299.7 141 327 142C354.3 143 381.7 165 409 173C436.3 181 463.7 175 491 179C518.3 183 545.7 197 573 201C600.3 205 627.7 199 654.8 205C682 211 709 229 736.2 220C763.3 211 790.7 175 818 153C845.3 131 872.7 123 886.3 119L900 115L900 53L886.3 56C872.7 59 845.3 65 818 83C790.7 101 763.3 131 736.2 140C709 149 682 137 654.8 131C627.7 125 600.3 125 573 123C545.7 121 518.3 117 491 114C463.7 111 436.3 109 409 105C381.7 101 354.3 95 327 94C299.7 93 272.3 97 245.2 100C218 103 191 105 163.8 111C136.7 117 109.3 127 82 133C54.7 139 27.3 141 13.7 142L0 143Z" fill="#4385ff"></path><path d="M0 361L13.7 344C27.3 327 54.7 293 82 281C109.3 269 136.7 279 163.8 292C191 305 218 321 245.2 316C272.3 311 299.7 285 327 295C354.3 305 381.7 351 409 367C436.3 383 463.7 369 491 353C518.3 337 545.7 319 573 328C600.3 337 627.7 373 654.8 380C682 387 709 365 736.2 363C763.3 361 790.7 379 818 365C845.3 351 872.7 305 886.3 282L900 259L900 113L886.3 117C872.7 121 845.3 129 818 151C790.7 173 763.3 209 736.2 218C709 227 682 209 654.8 203C627.7 197 600.3 203 573 199C545.7 195 518.3 181 491 177C463.7 173 436.3 179 409 171C381.7 163 354.3 141 327 140C299.7 139 272.3 159 245.2 162C218 165 191 151 163.8 153C136.7 155 109.3 173 82 180C54.7 187 27.3 183 13.7 181L0 179Z" fill="#2071ff"></path><path d="M0 469L13.7 469C27.3 469 54.7 469 82 468C109.3 467 136.7 465 163.8 458C191 451 218 439 245.2 444C272.3 449 299.7 471 327 479C354.3 487 381.7 481 409 474C436.3 467 463.7 459 491 463C518.3 467 545.7 483 573 495C600.3 507 627.7 515 654.8 521C682 527 709 531 736.2 529C763.3 527 790.7 519 818 516C845.3 513 872.7 515 886.3 516L900 517L900 257L886.3 280C872.7 303 845.3 349 818 363C790.7 377 763.3 359 736.2 361C709 363 682 385 654.8 378C627.7 371 600.3 335 573 326C545.7 317 518.3 335 491 351C463.7 367 436.3 381 409 365C381.7 349 354.3 303 327 293C299.7 283 272.3 309 245.2 314C218 319 191 303 163.8 290C136.7 277 109.3 267 82 279C54.7 291 27.3 325 13.7 342L0 359Z" fill="#0061f1"></path><path d="M0 511L13.7 520C27.3 529 54.7 547 82 551C109.3 555 136.7 545 163.8 536C191 527 218 519 245.2 517C272.3 515 299.7 519 327 524C354.3 529 381.7 535 409 532C436.3 529 463.7 517 491 515C518.3 513 545.7 521 573 530C600.3 539 627.7 549 654.8 555C682 561 709 563 736.2 564C763.3 565 790.7 565 818 562C845.3 559 872.7 553 886.3 550L900 547L900 515L886.3 514C872.7 513 845.3 511 818 514C790.7 517 763.3 525 736.2 527C709 529 682 525 654.8 519C627.7 513 600.3 505 573 493C545.7 481 518.3 465 491 461C463.7 457 436.3 465 409 472C381.7 479 354.3 485 327 477C299.7 469 272.3 447 245.2 442C218 437 191 449 163.8 456C136.7 463 109.3 465 82 466C54.7 467 27.3 467 13.7 467L0 467Z" fill="#0056d6"></path><path d="M0 601L13.7 601C27.3 601 54.7 601 82 601C109.3 601 136.7 601 163.8 601C191 601 218 601 245.2 601C272.3 601 299.7 601 327 601C354.3 601 381.7 601 409 601C436.3 601 463.7 601 491 601C518.3 601 545.7 601 573 601C600.3 601 627.7 601 654.8 601C682 601 709 601 736.2 601C763.3 601 790.7 601 818 601C845.3 601 872.7 601 886.3 601L900 601L900 545L886.3 548C872.7 551 845.3 557 818 560C790.7 563 763.3 563 736.2 562C709 561 682 559 654.8 553C627.7 547 600.3 537 573 528C545.7 519 518.3 511 491 513C463.7 515 436.3 527 409 530C381.7 533 354.3 527 327 522C299.7 517 272.3 513 245.2 515C218 517 191 525 163.8 534C136.7 543 109.3 553 82 549C54.7 545 27.3 527 13.7 518L0 509Z" fill="#004cbb"></path></svg>