<svg id="visual" viewBox="0 0 900 600" width="900" height="600" xmlns="http://www.w3.org/2000/svg" xmlns:xlink="http://www.w3.org/1999/xlink" version="1.1"><path d="M0 199L82 151L164 217L245 229L327 181L409 265L491 265L573 235L655 181L736 181L818 121L900 91L900 0L818 0L736 0L655 0L573 0L491 0L409 0L327 0L245 0L164 0L82 0L0 0Z" fill="#00cc8e"></path><path d="M0 277L82 265L164 361L245 295L327 331L409 349L491 331L573 385L655 295L736 277L818 187L900 175L900 89L818 119L736 179L655 179L573 233L491 263L409 263L327 179L245 227L164 215L82 149L0 197Z" fill="#00b98a"></path><path d="M0 355L82 361L164 433L245 367L327 391L409 433L491 367L573 451L655 331L736 361L818 247L900 259L900 173L818 185L736 275L655 293L573 383L491 329L409 347L327 329L245 293L164 359L82 263L0 275Z" fill="#00a784"></path><path d="M0 547L82 553L164 523L245 505L327 553L409 517L491 535L573 547L655 475L736 511L818 517L900 487L900 257L818 245L736 359L655 329L573 449L491 365L409 431L327 389L245 365L164 431L82 359L0 353Z" fill="#00957c"></path><path d="M0 601L82 601L164 601L245 601L327 601L409 601L491 601L573 601L655 601L736 601L818 601L900 601L900 485L818 515L736 509L655 473L573 545L491 533L409 515L327 551L245 503L164 521L82 551L0 545Z" fill="#038373"></path></svg>